<svg stroke="currentColor" fill="currentColor" stroke-width="0" viewBox="0 0 20 20" aria-hidden="true" class="h-6 w-6 flex-shrink-0 text-gray-500 transition duration-75 group-hover:text-gray-900 dark:text-gray-400 dark:group-hover:text-white" data-testid="flowbite-sidebar-item-icon" height="1em" width="1em" xmlns="http://www.w3.org/2000/svg"><path d="M7 3a1 1 0 000 2h6a1 1 0 100-2H7zM4 7a1 1 0 011-1h10a1 1 0 110 2H5a1 1 0 01-1-1zM2 11a2 2 0 012-2h12a2 2 0 012 2v4a2 2 0 01-2 2H4a2 2 0 01-2-2v-4z"></path></svg>