<svg stroke="currentColor" fill="currentColor" stroke-width="0" viewBox="0 0 20 20" aria-hidden="true" class="h-6 w-6 flex-shrink-0 text-gray-500 transition duration-75 group-hover:text-gray-900 dark:text-gray-400 dark:group-hover:text-white" data-testid="flowbite-sidebar-item-icon" height="1em" width="1em" xmlns="http://www.w3.org/2000/svg"><path d="M8.707 7.293a1 1 0 00-1.414 1.414l2 2a1 1 0 001.414 0l2-2a1 1 0 00-1.414-1.414L11 7.586V3a1 1 0 10-2 0v4.586l-.293-.293z"></path><path d="M3 5a2 2 0 012-2h1a1 1 0 010 2H5v7h2l1 2h4l1-2h2V5h-1a1 1 0 110-2h1a2 2 0 012 2v10a2 2 0 01-2 2H5a2 2 0 01-2-2V5z"></path></svg>