<svg stroke="currentColor" fill="currentColor" stroke-width="0" viewBox="0 0 20 20" aria-hidden="true" class="h-6 w-6 text-gray-500 transition duration-75 group-hover:text-gray-900 dark:text-gray-400 dark:group-hover:text-white" data-testid="flowbite-sidebar-collapse-icon" height="1em" width="1em" xmlns="http://www.w3.org/2000/svg"><path fill-rule="evenodd" d="M5 3a2 2 0 00-2 2v10a2 2 0 002 2h10a2 2 0 002-2V5a2 2 0 00-2-2H5zm9 4a1 1 0 10-2 0v6a1 1 0 102 0V7zm-3 2a1 1 0 10-2 0v4a1 1 0 102 0V9zm-3 3a1 1 0 10-2 0v1a1 1 0 102 0v-1z" clip-rule="evenodd"></path></svg>