<svg stroke="currentColor" fill="currentColor" stroke-width="0" viewBox="0 0 20 20" class="text-2xl text-gray-500 hover:text-gray-900 dark:text-gray-400 dark:hover:text-white" height="1em" width="1em" xmlns="http://www.w3.org/2000/svg"><path d="M5 3a2 2 0 00-2 2v2a2 2 0 002 2h2a2 2 0 002-2V5a2 2 0 00-2-2H5zM5 11a2 2 0 00-2 2v2a2 2 0 002 2h2a2 2 0 002-2v-2a2 2 0 00-2-2H5zM11 5a2 2 0 012-2h2a2 2 0 012 2v2a2 2 0 01-2 2h-2a2 2 0 01-2-2V5zM11 13a2 2 0 012-2h2a2 2 0 012 2v2a2 2 0 01-2 2h-2a2 2 0 01-2-2v-2z"></path></svg>